<svg width="61" height="60" viewBox="0 0 61 60" fill="none" xmlns="http://www.w3.org/2000/svg">
<path d="M29.9418 0.0258766C14.6313 0.0258766 15.5995 6.64606 15.5995 6.64606V13.525H30.1596V15.6814H9.80089C9.80089 15.6814 0 14.4738 0 30.0108C0 45.5477 8.65368 44.9159 8.65368 44.9159H13.6501V37.6682C13.6501 37.6682 13.3698 29.0145 22.0601 29.0145H36.6417C36.6417 29.0145 44.7757 29.1439 44.7757 21.1393V8.0046C44.7757 8.0046 46.0092 0 30.0216 0L29.9418 0.0258766ZM21.894 4.63413C22.4117 4.62107 22.9215 4.7618 23.3592 5.03853C23.7968 5.31526 24.1426 5.71555 24.3527 6.18879C24.5628 6.66203 24.6279 7.18695 24.5397 7.69717C24.4515 8.20739 24.2139 8.67999 23.8571 9.05521C23.5003 9.43042 23.0402 9.6914 22.5351 9.80513C22.0299 9.91886 21.5024 9.88024 21.0192 9.69415C20.536 9.50806 20.1189 9.18286 19.8205 8.75968C19.5221 8.33649 19.356 7.83433 19.343 7.3167V7.27358C19.343 6.92979 19.4107 6.58937 19.5423 6.27176C19.6738 5.95414 19.8667 5.66555 20.1098 5.42245C20.3529 5.17936 20.6415 4.98653 20.9591 4.85497C21.2767 4.72341 21.6171 4.65569 21.9609 4.65569L21.894 4.63413Z" fill="url(#paint0_linear_1_48)"/>
<path d="M30.3728 59.9957C45.6834 59.9957 44.7151 53.3539 44.7151 53.3539V46.4965H30.1572V44.3401H50.5784C50.5784 44.3401 60.3793 45.4356 60.3793 29.9892C60.3793 14.5428 51.7256 15.0841 51.7256 15.0841H46.6645V22.2369C46.6645 22.2369 46.9449 30.8906 38.2545 30.8906H23.6664C23.6664 30.8906 15.5259 30.7677 15.5259 38.7723V51.9954C15.5259 51.9954 14.2925 60 30.2801 60H30.3664L30.3728 59.9957ZM38.4206 55.3659C37.9029 55.3789 37.3931 55.2382 36.9554 54.9615C36.5178 54.6847 36.1721 54.2844 35.9619 53.8112C35.7518 53.338 35.6867 52.8131 35.7749 52.3028C35.8631 51.7926 36.1007 51.32 36.4575 50.9448C36.8143 50.5696 37.2744 50.3086 37.7795 50.1949C38.2847 50.0811 38.8122 50.1198 39.2954 50.3058C39.7786 50.4919 40.1957 50.8171 40.4941 51.2403C40.7925 51.6635 40.9586 52.1657 40.9716 52.6833V52.748C40.9716 53.4423 40.6958 54.1082 40.2048 54.5991C39.7139 55.0901 39.048 55.3659 38.3537 55.3659H38.4184H38.4206Z" fill="url(#paint1_linear_1_48)"/>
<defs>
<linearGradient id="paint0_linear_1_48" x1="5.96714" y1="5.89757" x2="34.6187" y2="34.4842" gradientUnits="userSpaceOnUse">
<stop stop-color="#387EB8"/>
<stop offset="1" stop-color="#366994"/>
</linearGradient>
<linearGradient id="paint1_linear_1_48" x1="22.917" y1="24.5196" x2="55.6518" y2="53.0976" gradientUnits="userSpaceOnUse">
<stop stop-color="#FFE052"/>
<stop offset="1" stop-color="#FFC331"/>
</linearGradient>
</defs>
</svg>
