<svg width="68" height="60" viewBox="0 0 68 60" fill="none" xmlns="http://www.w3.org/2000/svg">
<path d="M33.5957 36.1181C36.9746 36.1181 39.7138 33.3789 39.7138 30C39.7138 26.6211 36.9746 23.8819 33.5957 23.8819C30.2168 23.8819 27.4777 26.6211 27.4777 30C27.4777 33.3789 30.2168 36.1181 33.5957 36.1181Z" fill="#61DAFB"/>
<path d="M56.8336 19.9106C55.653 19.4812 54.4186 19.0519 53.1306 18.6762C53.4526 17.3882 53.7209 16.1002 53.9356 14.8658C55.0626 7.78175 53.8283 2.7907 50.3936 0.858676C49.3739 0.268336 48.2469 0 46.9589 0C43.2021 0 38.4258 2.7907 33.5957 7.45975C28.7657 2.7907 23.9893 0 20.2326 0C18.9445 0 17.8175 0.268336 16.7979 0.858676C13.3631 2.84436 12.1288 7.83542 13.2558 14.8658C13.4705 16.1002 13.7388 17.3882 14.0608 18.6762C12.7728 19.0519 11.5385 19.4275 10.3578 19.9106C3.64937 22.4866 0 26.0286 0 30C0 33.9714 3.70304 37.5134 10.3578 40.0894C11.5385 40.5188 12.7728 40.9481 14.0608 41.3238C13.7388 42.6118 13.4705 43.8998 13.2558 45.1342C12.1288 52.2182 13.3631 57.2093 16.7979 59.1413C17.8175 59.7317 18.9445 60 20.2326 60C24.0429 60 28.8193 57.2093 33.5957 52.5402C38.4258 57.2093 43.2021 60 46.9589 60C48.2469 60 49.3739 59.7317 50.3936 59.1413C53.8283 57.1556 55.0626 52.1646 53.9356 45.1342C53.7209 43.8998 53.4526 42.6118 53.1306 41.3238C54.4186 40.9481 55.653 40.5725 56.8336 40.0894C63.542 37.5134 67.1914 33.9714 67.1914 30C67.1914 26.0286 63.542 22.4866 56.8336 19.9106ZM48.8909 3.54204C51.0912 4.83005 51.8426 8.80143 50.9302 14.4365C50.7692 15.5635 50.5009 16.7442 50.1789 17.9785C47.3882 17.3345 44.4365 16.9052 41.3238 16.6368C39.4991 14.0608 37.6208 11.7531 35.7424 9.66011C39.7138 5.7424 43.7388 3.05903 47.0125 3.05903C47.7102 3.05903 48.3542 3.22004 48.8909 3.54204V3.54204ZM42.8801 35.3667C41.9141 37.0841 40.7871 38.8014 39.6064 40.5188C37.6208 40.6798 35.6351 40.7335 33.5957 40.7335C31.5027 40.7335 29.517 40.6798 27.585 40.5188C26.4043 38.8014 25.3309 37.0841 24.3649 35.3667C23.3453 33.5957 22.3792 31.771 21.5206 30C22.3792 28.229 23.3453 26.4043 24.3649 24.6333C25.3309 22.9159 26.458 21.1986 27.6386 19.4812C29.6243 19.3202 31.61 19.2665 33.6494 19.2665C35.7424 19.2665 37.7281 19.3202 39.6601 19.4812C40.8408 21.1986 41.9141 22.9159 42.8801 24.6333C43.8998 26.4043 44.8658 28.229 45.7245 30C44.8122 31.771 43.8998 33.542 42.8801 35.3667ZM47.3345 33.5957C48.1395 35.4741 48.7835 37.2987 49.3739 39.1234C47.5492 39.5528 45.6172 39.8748 43.5778 40.1431C44.2218 39.1234 44.9195 38.0501 45.5098 36.9231C46.1538 35.7961 46.7442 34.669 47.3345 33.5957ZM33.5957 48.1395C32.3077 46.7442 31.0733 45.2415 29.8927 43.6851C31.127 43.7388 32.3614 43.7925 33.5957 43.7925C34.8301 43.7925 36.0644 43.7388 37.2987 43.6851C36.1181 45.2415 34.8837 46.7442 33.5957 48.1395ZM23.6136 40.0894C21.5742 39.8211 19.6422 39.4991 17.8175 39.0698C18.4079 37.2987 19.0519 35.4204 19.8569 33.542C20.4472 34.6154 21.0376 35.7424 21.6816 36.8157C22.3256 37.9964 22.9696 39.0161 23.6136 40.0894V40.0894ZM19.8569 26.4043C19.0519 24.5259 18.4079 22.7013 17.8175 20.8766C19.6422 20.4472 21.5742 20.1252 23.6136 19.8569C22.9696 20.8766 22.2719 21.9499 21.6816 23.0769C21.0376 24.2039 20.4472 25.3309 19.8569 26.4043V26.4043ZM33.5957 11.8605C34.8837 13.2558 36.1181 14.7585 37.2987 16.3148C36.0644 16.2612 34.8301 16.2075 33.5957 16.2075C32.3614 16.2075 31.127 16.2612 29.8927 16.3148C31.0733 14.7585 32.3077 13.2558 33.5957 11.8605V11.8605ZM45.5098 23.1306L43.5778 19.9106C45.6172 20.1789 47.5492 20.5009 49.3739 20.9302C48.7835 22.7013 48.1395 24.5796 47.3345 26.458C46.7442 25.3309 46.1538 24.2039 45.5098 23.1306V23.1306ZM16.2612 14.4365C15.3488 8.80143 16.1002 4.83005 18.3005 3.54204C18.8372 3.22004 19.4812 3.05903 20.1789 3.05903C23.3989 3.05903 27.424 5.68873 31.449 9.66011C29.5707 11.6995 27.6923 14.0608 25.8676 16.6368C22.7549 16.9052 19.8032 17.3882 17.0125 17.9785C16.6905 16.7442 16.4759 15.5635 16.2612 14.4365ZM3.00537 30C3.00537 27.4776 6.0644 24.7943 11.4311 22.8086C12.5045 22.3792 13.6852 22.0036 14.8658 21.6816C15.7245 24.3649 16.7979 27.2093 18.0859 30.0537C16.7979 32.898 15.6708 35.6887 14.8658 38.3721C7.45975 36.2254 3.00537 33.0054 3.00537 30V30ZM18.3005 56.458C16.1002 55.1699 15.3488 51.1986 16.2612 45.5635C16.4222 44.4365 16.6905 43.2558 17.0125 42.0215C19.8032 42.6655 22.7549 43.0948 25.8676 43.3631C27.6923 45.9392 29.5707 48.2469 31.449 50.3399C27.4776 54.2576 23.4526 56.941 20.1789 56.941C19.4812 56.941 18.8372 56.78 18.3005 56.458ZM50.9302 45.5635C51.8426 51.1986 51.0912 55.1699 48.8909 56.458C48.3542 56.78 47.7102 56.941 47.0125 56.941C43.7925 56.941 39.7674 54.3113 35.7424 50.3399C37.6208 48.3005 39.4991 45.9392 41.3238 43.3631C44.4365 43.0948 47.3882 42.6118 50.1789 42.0215C50.5009 43.2558 50.7156 44.4365 50.9302 45.5635V45.5635ZM55.7603 37.1914C54.6869 37.6208 53.5063 37.9964 52.3256 38.3184C51.4669 35.6351 50.3936 32.7907 49.1055 29.9463C50.3936 27.102 51.5206 24.3113 52.3256 21.6279C59.7317 23.7746 64.186 26.9946 64.186 30C64.186 32.5224 61.0733 35.2057 55.7603 37.1914V37.1914Z" fill="#61DAFB"/>
</svg>
